<svg xmlns="http://www.w3.org/2000/svg" width="120" height="150" viewBox="0 0 120 150">
  <rect width="120" height="150" fill="none" />
  <path d="M35 79c4-7 13-10 25-10 13 0 22 3 25 10l8 23-11 5-8-16v54H46V91l-8 16-11-5 8-23Z" fill="#cf7a49" />
  <rect x="52" y="75" width="16" height="54" rx="4" fill="#fbf4ec" />
  <path d="M44 80h13v50H44z" fill="#c36a38" />
  <path d="M63 80h13v50H63z" fill="#c36a38" />
  <rect x="45" y="129" width="12" height="16" rx="5" fill="#6e6f9d" />
  <rect x="63" y="129" width="12" height="16" rx="5" fill="#6e6f9d" />
  <rect x="42" y="144" width="18" height="5" rx="2.5" fill="#443537" />
  <rect x="60" y="144" width="18" height="5" rx="2.5" fill="#443537" />
</svg>