<svg xmlns="http://www.w3.org/2000/svg" width="120" height="150" viewBox="0 0 120 150">
  <rect width="120" height="150" fill="none" />
  <path d="M33 79c4-7 14-10 27-10 13 0 23 3 27 10l8 24-12 6-6-18v54H43V91l-6 18-12-6 8-24Z" fill="#355c8d" />
  <rect x="46" y="77" width="28" height="51" rx="6" fill="#f3f0e9" />
  <rect x="40" y="82" width="8" height="50" rx="4" fill="#284465" />
  <rect x="72" y="82" width="8" height="50" rx="4" fill="#284465" />
  <rect x="46" y="127" width="12" height="18" rx="4" fill="#284465" />
  <rect x="62" y="127" width="12" height="18" rx="4" fill="#284465" />
  <rect x="43" y="144" width="18" height="5" rx="2.5" fill="#2b2b35" />
  <rect x="59" y="144" width="18" height="5" rx="2.5" fill="#2b2b35" />
</svg>