<svg xmlns="http://www.w3.org/2000/svg" width="120" height="150" viewBox="0 0 120 150">
  <rect width="120" height="150" fill="none" />
  <g id="hair-black-wave">
    <path id="hair-base" d="M37 44c0-17 9-28 23-28 16 0 27 12 27 30 0 8-2 13-5 18-4-5-8-8-12-8-5 0-7 4-11 4-4 0-8-5-12-5-4 0-7 2-10 5-1-5-2-10-2-16Z" fill="#1f1c1c" />
    <path id="wave-line" d="M35 46c3 7 8 12 14 12 4 0 8-4 11-4 4 0 7 4 12 4 4 0 8-2 12-7" fill="none" stroke="#1f1c1c" stroke-width="8" stroke-linecap="round" />
  </g>
</svg>