<svg xmlns="http://www.w3.org/2000/svg" width="120" height="150" viewBox="0 0 120 150">
  <rect width="120" height="150" fill="none" />
  <ellipse cx="60" cy="47" rx="23" ry="26" fill="#e5bc91" />
  <ellipse cx="37" cy="48" rx="4" ry="6" fill="#e5bc91" />
  <ellipse cx="83" cy="48" rx="4" ry="6" fill="#e5bc91" />
  <rect x="51" y="67" width="18" height="13" rx="7" fill="#e5bc91" />
  <path d="M38 34c0-14 9-24 22-24 14 0 22 11 22 24 0 1 0 3-1 4H39c-1-1-1-3-1-4Z" fill="#c94135" />
  <rect x="37" y="34" width="46" height="10" rx="5" fill="#f8f4ea" />
  <circle cx="60" cy="10" r="5" fill="#f8f4ea" />
  <g fill="none" stroke="#24363d" stroke-width="3">
    <circle cx="50" cy="50" r="8" />
    <circle cx="70" cy="50" r="8" />
    <path d="M58 50h4" stroke-linecap="round" />
  </g>
  <path d="M33 79c4-7 14-10 27-10 13 0 23 3 27 10l8 24-11 6-7-18v54H43V91l-7 18-11-6 8-24Z" fill="#f5f1e8" />
  <rect x="45" y="79" width="30" height="48" rx="5" fill="#f8f5ec" />
  <g fill="#ce4333">
    <rect x="45" y="83" width="30" height="6" rx="3" />
    <rect x="45" y="94" width="30" height="6" rx="3" />
    <rect x="45" y="105" width="30" height="6" rx="3" />
    <rect x="45" y="116" width="30" height="6" rx="3" />
  </g>
  <rect x="46" y="127" width="12" height="18" rx="4" fill="#416485" />
  <rect x="62" y="127" width="12" height="18" rx="4" fill="#416485" />
  <rect x="43" y="144" width="18" height="5" rx="2.5" fill="#2a2b32" />
  <rect x="59" y="144" width="18" height="5" rx="2.5" fill="#2a2b32" />
</svg>