<svg
  xmlns="http://www.w3.org/2000/svg"
  width="120"
  height="150"
  viewBox="0 0 120 150"
>
  <rect width="120" height="150" fill="none" />
  <g id="viovvy-classic">
    <g id="hairstyle">
      <path
        id="outer-hair"
        d="M34 44c0-20 11-34 26-34s26 14 26 34c0 9-2 18-6 24l-5 9c-3 5-9 8-15 8s-12-3-15-8l-5-9c-4-6-6-15-6-24Z"
        fill="#3f7bc4"
      />
      <path
        id="hair-top"
        d="M34 44c0-20 11-34 26-34s26 14 26 34c0 4-1 8-3 12-4-3-8-4-13-4-3 0-7 1-10 1s-7-1-10-1c-5 0-9 1-13 4-2-4-3-8-3-12Z"
        fill="#6d442e"
      />
    </g>
    <g id="head">
      <ellipse id="face" cx="60" cy="47" rx="23" ry="26" fill="#e5bc91" />
      <g id="ears">
        <ellipse cx="37" cy="48" rx="4" ry="6" fill="#e5bc91" />
        <ellipse cx="83" cy="48" rx="4" ry="6" fill="#e5bc91" />
      </g>
      <rect
        id="neck"
        x="51"
        y="67"
        width="18"
        height="13"
        rx="7"
        fill="#e5bc91"
      />
    </g>
    <g id="eyewear" fill="none" stroke="#f1eee6" stroke-width="3">
      <circle cx="50" cy="50" r="8" />
      <circle cx="70" cy="50" r="8" />
      <path d="M58 50h4" stroke-linecap="round" />
    </g>
    <g id="shirt">
      <path
        id="shirt-base"
        d="M33 79c4-7 14-10 27-10 13 0 23 3 27 10l8 24-11 6-7-18v54H43V91l-7 18-11-6 8-24Z"
        fill="#111111"
      />
      <rect
        id="shirt-panel"
        x="45"
        y="79"
        width="30"
        height="48"
        rx="5"
        fill="#ffffff"
      />
    </g>
    <g id="pants">
      <rect
        id="left-leg"
        x="46"
        y="127"
        width="12"
        height="18"
        rx="4"
        fill="#416485"
      />
      <rect
        id="right-leg"
        x="62"
        y="127"
        width="12"
        height="18"
        rx="4"
        fill="#416485"
      />
    </g>
    <g id="shoes">
      <rect
        id="left-shoe"
        x="43"
        y="144"
        width="18"
        height="5"
        rx="2.5"
        fill="#2a2b32"
      />
      <rect
        id="right-shoe"
        x="59"
        y="144"
        width="18"
        height="5"
        rx="2.5"
        fill="#2a2b32"
      />
    </g>
  </g>
</svg>
