<?xml version="1.0" encoding="UTF-8"?>
<svg
  xmlns="http://www.w3.org/2000/svg"
  width="48"
  height="46"
  viewBox="0 0 48 46"
  fill="none"
  role="img"
  aria-label="Viovvy favicon"
>
  <rect width="48" height="46" rx="8" fill="#863bff" />

  <!-- hairstyle (base and top highlights) inspired by viovvy_classic.svg -->
  <path d="M6 18 C9 6, 39 6, 42 18 C36 24, 12 24, 6 18 Z" fill="#3f7bc4" />
  <path
    d="M12 16 C17 8, 31 8, 36 16 C31 19, 17 19, 12 16 Z"
    fill="#6d442e"
    opacity="0.9"
  />

  <!-- face and neck -->
  <ellipse cx="24" cy="22" rx="9" ry="10" fill="#e5bc91" />
  <rect x="20" y="30" width="8" height="6" rx="3" fill="#e5bc91" />

  <!-- shirt (dark with white panel) -->
  <path d="M12 36 L36 36 L30 46 L18 46 Z" fill="#111111" />
  <rect x="18" y="36" width="12" height="10" rx="2" fill="#ffffff" />

  <!-- eyewear (simple round glasses) -->
  <circle
    cx="18"
    cy="22"
    r="3.2"
    stroke="#f1eee6"
    stroke-width="1.8"
    fill="none"
  />
  <circle
    cx="30"
    cy="22"
    r="3.2"
    stroke="#f1eee6"
    stroke-width="1.8"
    fill="none"
  />
  <path
    d="M21 22h6"
    stroke="#f1eee6"
    stroke-width="1.8"
    stroke-linecap="round"
  />
</svg>
